<svg xmlns="http://www.w3.org/2000/svg" width="54" height="15" viewBox="0 0 54 15" fill="none"><metadata><rdf:RDF xmlns:rdf="http://www.w3.org/1999/02/22-rdf-syntax-ns#" xmlns:dc="http://purl.org/dc/elements/1.1/"><rdf:Description><dc:creator>RealFaviconGenerator</dc:creator><dc:source>https://realfavicongenerator.net</dc:source></rdf:Description></rdf:RDF></metadata><path d="M47.179 14.9091C46.9517 14.9091 46.7491 14.8901 46.571 14.8523C46.393 14.8182 46.2699 14.7841 46.2017 14.75L46.5426 13.5682C46.8684 13.6515 47.1563 13.6818 47.4063 13.6591C47.6563 13.6364 47.8778 13.5246 48.071 13.3239C48.268 13.1269 48.4479 12.8068 48.6108 12.3636L48.8608 11.6818L45.6335 2.90909H47.0881L49.4972 9.86363H49.5881L51.9972 2.90909H53.4517L49.7472 12.9091C49.5805 13.3598 49.3741 13.733 49.1278 14.0284C48.8816 14.3276 48.5957 14.5492 48.2699 14.6932C47.9479 14.8371 47.5843 14.9091 47.179 14.9091Z" fill="#7A7A7A"></path><path d="M36.8722 11.6364V0H38.2131V4.29545H38.3267C38.4252 4.14394 38.5616 3.95076 38.7358 3.71591C38.9138 3.47727 39.1676 3.26515 39.4972 3.07955C39.8305 2.89015 40.2813 2.79545 40.8494 2.79545C41.5843 2.79545 42.232 2.97917 42.7926 3.34659C43.3532 3.71402 43.7907 4.23485 44.1051 4.90909C44.4195 5.58333 44.5767 6.37879 44.5767 7.29545C44.5767 8.2197 44.4195 9.02083 44.1051 9.69886C43.7907 10.3731 43.3551 10.8958 42.7983 11.267C42.2415 11.6345 41.5994 11.8182 40.8722 11.8182C40.3116 11.8182 39.8627 11.7254 39.5256 11.5398C39.1884 11.3504 38.929 11.1364 38.7472 10.8977C38.5653 10.6553 38.4252 10.4545 38.3267 10.2955H38.1676V11.6364H36.8722ZM38.1903 7.27273C38.1903 7.93182 38.2869 8.51326 38.4801 9.01705C38.6733 9.51705 38.9555 9.90909 39.3267 10.1932C39.6979 10.4735 40.1525 10.6136 40.6903 10.6136C41.2509 10.6136 41.7188 10.4659 42.0938 10.1705C42.4725 9.87121 42.7566 9.4697 42.946 8.96591C43.1392 8.45833 43.2358 7.89394 43.2358 7.27273C43.2358 6.65909 43.1411 6.10606 42.9517 5.61364C42.7661 5.11742 42.4839 4.72538 42.1051 4.4375C41.7301 4.14583 41.2585 4 40.6903 4C40.1449 4 39.6866 4.13826 39.3153 4.41477C38.9441 4.6875 38.6638 5.07008 38.4744 5.5625C38.285 6.05114 38.1903 6.62121 38.1903 7.27273Z" fill="#F57C00"></path><path d="M30.6889 11.8182C29.901 11.8182 29.2098 11.6307 28.6151 11.2557C28.0241 10.8807 27.562 10.3561 27.2287 9.68182C26.8991 9.00758 26.7344 8.2197 26.7344 7.31818C26.7344 6.40909 26.8991 5.61553 27.2287 4.9375C27.562 4.25947 28.0241 3.73296 28.6151 3.35796C29.2098 2.98296 29.901 2.79546 30.6889 2.79546C31.4768 2.79546 32.1662 2.98296 32.7571 3.35796C33.3518 3.73296 33.8139 4.25947 34.1435 4.9375C34.4768 5.61553 34.6435 6.40909 34.6435 7.31818C34.6435 8.2197 34.4768 9.00758 34.1435 9.68182C33.8139 10.3561 33.3518 10.8807 32.7571 11.2557C32.1662 11.6307 31.4768 11.8182 30.6889 11.8182ZM30.6889 10.6136C31.2874 10.6136 31.7798 10.4602 32.1662 10.1534C32.5526 9.84659 32.8385 9.44318 33.0241 8.94318C33.2098 8.44318 33.3026 7.90152 33.3026 7.31818C33.3026 6.73485 33.2098 6.19129 33.0241 5.6875C32.8385 5.18371 32.5526 4.77652 32.1662 4.46591C31.7798 4.1553 31.2874 4 30.6889 4C30.0904 4 29.598 4.1553 29.2116 4.46591C28.8253 4.77652 28.5393 5.18371 28.3537 5.6875C28.1681 6.19129 28.0753 6.73485 28.0753 7.31818C28.0753 7.90152 28.1681 8.44318 28.3537 8.94318C28.5393 9.44318 28.8253 9.84659 29.2116 10.1534C29.598 10.4602 30.0904 10.6136 30.6889 10.6136Z" fill="#7A7A7A"></path><path d="M24.9659 4.86364L23.7614 5.20455C23.6856 5.00379 23.5739 4.80871 23.4261 4.61932C23.2822 4.42614 23.0852 4.26705 22.8352 4.14205C22.5852 4.01705 22.2652 3.95455 21.875 3.95455C21.3409 3.95455 20.8958 4.07765 20.5398 4.32386C20.1875 4.56629 20.0114 4.875 20.0114 5.25C20.0114 5.58333 20.1326 5.84659 20.375 6.03977C20.6174 6.23296 20.9962 6.39394 21.5114 6.52273L22.8068 6.84091C23.5871 7.0303 24.1686 7.32008 24.5511 7.71023C24.9337 8.09659 25.125 8.5947 25.125 9.20455C25.125 9.70455 24.9811 10.1515 24.6932 10.5455C24.4091 10.9394 24.0114 11.25 23.5 11.4773C22.9886 11.7045 22.3939 11.8182 21.7159 11.8182C20.8258 11.8182 20.089 11.625 19.5057 11.2386C18.9224 10.8523 18.553 10.2879 18.3977 9.54546L19.6705 9.22727C19.7917 9.69697 20.0208 10.0492 20.358 10.2841C20.6989 10.5189 21.1439 10.6364 21.6932 10.6364C22.3182 10.6364 22.8144 10.5038 23.1818 10.2386C23.553 9.9697 23.7386 9.64773 23.7386 9.27273C23.7386 8.9697 23.6326 8.71591 23.4205 8.51136C23.2083 8.30303 22.8826 8.14773 22.4432 8.04546L20.9886 7.70455C20.1894 7.51515 19.6023 7.22159 19.2273 6.82386C18.8561 6.42235 18.6705 5.92046 18.6705 5.31818C18.6705 4.82576 18.8087 4.39015 19.0852 4.01136C19.3655 3.63258 19.7462 3.33523 20.2273 3.11932C20.7121 2.90341 21.2614 2.79546 21.875 2.79546C22.7386 2.79546 23.4167 2.98485 23.9091 3.36364C24.4053 3.74243 24.7576 4.24242 24.9659 4.86364Z" fill="#7A7A7A"></path><path d="M10.7656 6.38636V11.6364H9.42471V2.90909H10.7202V4.27273H10.8338C11.0383 3.82955 11.349 3.47349 11.7656 3.20455C12.1823 2.93182 12.7202 2.79546 13.3793 2.79546C13.9702 2.79546 14.4872 2.91667 14.9304 3.15909C15.3736 3.39773 15.7183 3.76136 15.9645 4.25C16.2107 4.73485 16.3338 5.34849 16.3338 6.09091V11.6364H14.9929V6.18182C14.9929 5.49621 14.8149 4.96212 14.4588 4.57955C14.1027 4.19318 13.6141 4 12.9929 4C12.5649 4 12.1823 4.0928 11.8452 4.27841C11.5118 4.46402 11.2486 4.73485 11.0554 5.09091C10.8622 5.44697 10.7656 5.87879 10.7656 6.38636Z" fill="#7A7A7A"></path><path d="M2.97727 11.8409C2.42424 11.8409 1.92235 11.7367 1.47159 11.5284C1.02083 11.3163 0.662879 11.0114 0.397727 10.6136C0.132576 10.2121 0 9.72727 0 9.15909C0 8.65909 0.0984848 8.25379 0.295455 7.94318C0.492424 7.62879 0.755682 7.38258 1.08523 7.20455C1.41477 7.02652 1.77841 6.89394 2.17614 6.80682C2.57765 6.71591 2.98106 6.64394 3.38636 6.59091C3.91667 6.52273 4.34659 6.47159 4.67614 6.4375C5.00947 6.39962 5.25189 6.33712 5.40341 6.25C5.55871 6.16288 5.63636 6.01136 5.63636 5.79545V5.75C5.63636 5.18939 5.48295 4.75379 5.17614 4.44318C4.87311 4.13258 4.41288 3.97727 3.79545 3.97727C3.1553 3.97727 2.65341 4.11743 2.28977 4.39773C1.92614 4.67803 1.67045 4.97727 1.52273 5.29545L0.25 4.84091C0.477273 4.31061 0.780303 3.89773 1.15909 3.60227C1.54167 3.30303 1.95833 3.0947 2.40909 2.97727C2.86364 2.85606 3.31061 2.79546 3.75 2.79546C4.0303 2.79546 4.35227 2.82955 4.71591 2.89773C5.08333 2.96212 5.4375 3.09659 5.77841 3.30114C6.12311 3.50568 6.40909 3.8144 6.63636 4.22727C6.86364 4.64015 6.97727 5.19318 6.97727 5.88636V11.6364H5.63636V10.4545H5.56818C5.47727 10.6439 5.32576 10.8466 5.11364 11.0625C4.90152 11.2784 4.61932 11.4621 4.26705 11.6136C3.91477 11.7652 3.48485 11.8409 2.97727 11.8409ZM3.18182 10.6364C3.71212 10.6364 4.15909 10.5322 4.52273 10.3239C4.89015 10.1155 5.16667 9.84659 5.35227 9.51705C5.54167 9.1875 5.63636 8.84091 5.63636 8.47727V7.25C5.57955 7.31818 5.45455 7.38068 5.26136 7.4375C5.07197 7.49053 4.85227 7.53788 4.60227 7.57955C4.35606 7.61743 4.11553 7.65152 3.88068 7.68182C3.64962 7.70833 3.46212 7.73106 3.31818 7.75C2.9697 7.79546 2.64394 7.86932 2.34091 7.97159C2.04167 8.07008 1.79924 8.2197 1.61364 8.42046C1.43182 8.61743 1.34091 8.88636 1.34091 9.22727C1.34091 9.69318 1.51326 10.0455 1.85795 10.2841C2.20644 10.5189 2.64773 10.6364 3.18182 10.6364Z" fill="#F57C00"></path></svg>